<svg version="1.1" xmlns="http://www.w3.org/2000/svg" xmlns:xlink="http://www.w3.org/1999/xlink" width="518.8623046875" height="110"><rect width="100%" height="100%" fill="white"/><defs/><g><g transform="translate(-126,-342) scale(1,1)"><rect fill="#ffffff" stroke="none" x="136" y="352" width="218.033203125" height="90"/></g><g transform="translate(-126,-342) scale(1,1)"><path fill="none" stroke="#000000" d="M 136 352 L 354.033203125 352 L 354.033203125 442 L 136 442 L 136 352 Z Z" stroke-miterlimit="10"/></g><g transform="translate(-126,-342) scale(1,1)"><path fill="none" stroke="#000000" d="M 136 375 L 354.033203125 375" stroke-miterlimit="10"/></g><g transform="translate(-126,-342) scale(1,1)"><path fill="none" stroke="#000000" d="M 164.05908203125 375 L 164.05908203125 442" stroke-miterlimit="10"/></g><g transform="translate(-126,-342) scale(1,1)"><path fill="none" stroke="#000000" d="M 257.8798828125 375 L 257.8798828125 442" stroke-miterlimit="10"/></g><g transform="translate(-126,-342) scale(1,1)"><g><path fill="none" stroke="none"/><text fill="#000000" stroke="none" font-family="Arial" font-size="13px" font-style="normal" font-weight="bold" text-decoration="none" x="232.3720703125" y="369.5">user</text></g></g><g transform="translate(-126,-342) scale(1,1)"><g><path fill="none" stroke="none"/><text fill="#000000" stroke="none" font-family="Arial" font-size="13px" font-style="normal" font-weight="normal" text-decoration="none" x="141" y="393">PK</text></g></g><g transform="translate(-126,-342) scale(1,1)"><g><path fill="none" stroke="none"/><text fill="#000000" stroke="none" font-family="Arial" font-size="13px" font-style="normal" font-weight="normal" text-decoration="none" x="169.05908203125" y="393">username</text></g></g><g transform="translate(-126,-342) scale(1,1)"><g><path fill="none" stroke="none"/><text fill="#000000" stroke="none" font-family="Arial" font-size="13px" font-style="normal" font-weight="normal" text-decoration="none" x="262.8798828125" y="393">VARCHAR(12)</text></g></g><g transform="translate(-126,-342) scale(1,1)"><g><path fill="none" stroke="none"/><text fill="#000000" stroke="none" font-family="Arial" font-size="13px" font-style="normal" font-weight="normal" text-decoration="none" x="141" y="392.5"></text></g></g><g transform="translate(-126,-342) scale(1,1)"><g><path fill="none" stroke="none"/><text fill="#000000" stroke="none" font-family="Arial" font-size="13px" font-style="normal" font-weight="normal" text-decoration="none" x="141" y="408"></text></g></g><g transform="translate(-126,-342) scale(1,1)"><g><path fill="none" stroke="none"/><text fill="#000000" stroke="none" font-family="Arial" font-size="13px" font-style="normal" font-weight="normal" text-decoration="none" x="169.05908203125" y="408">password</text></g></g><g transform="translate(-126,-342) scale(1,1)"><g><path fill="none" stroke="none"/><text fill="#000000" stroke="none" font-family="Arial" font-size="13px" font-style="normal" font-weight="normal" text-decoration="none" x="262.8798828125" y="408">CHAR(88)</text></g></g><g transform="translate(-126,-342) scale(1,1)"><g><path fill="none" stroke="none"/><text fill="#000000" stroke="none" font-family="Arial" font-size="13px" font-style="normal" font-weight="normal" text-decoration="none" x="141" y="407.5"></text></g></g><g transform="translate(-126,-342) scale(1,1)"><g><path fill="none" stroke="none"/><text fill="#000000" stroke="none" font-family="Arial" font-size="13px" font-style="normal" font-weight="normal" text-decoration="none" x="141" y="423"></text></g></g><g transform="translate(-126,-342) scale(1,1)"><g><path fill="none" stroke="none"/><text fill="#000000" stroke="none" font-family="Arial" font-size="13px" font-style="normal" font-weight="normal" text-decoration="none" x="169.05908203125" y="423">membersince</text></g></g><g transform="translate(-126,-342) scale(1,1)"><g><path fill="none" stroke="none"/><text fill="#000000" stroke="none" font-family="Arial" font-size="13px" font-style="normal" font-weight="normal" text-decoration="none" x="262.8798828125" y="423">TIMESTAMP</text></g></g><g transform="translate(-126,-342) scale(1,1)"><g><path fill="none" stroke="none"/><text fill="#000000" stroke="none" font-family="Arial" font-size="13px" font-style="normal" font-weight="normal" text-decoration="none" x="141" y="422.5"></text></g></g><g transform="translate(-126,-342) scale(1,1)"><g><path fill="none" stroke="none"/><text fill="#000000" stroke="none" font-family="Arial" font-size="13px" font-style="normal" font-weight="normal" text-decoration="none" x="141" y="438"></text></g></g><g transform="translate(-126,-342) scale(1,1)"><g><path fill="none" stroke="none"/><text fill="#000000" stroke="none" font-family="Arial" font-size="13px" font-style="normal" font-weight="normal" text-decoration="none" x="169.05908203125" y="438">admin</text></g></g><g transform="translate(-126,-342) scale(1,1)"><g><path fill="none" stroke="none"/><text fill="#000000" stroke="none" font-family="Arial" font-size="13px" font-style="normal" font-weight="normal" text-decoration="none" x="262.8798828125" y="438">BOOLEAN</text></g></g><g transform="translate(-126,-342) scale(1,1)"><g><path fill="none" stroke="none"/><text fill="#000000" stroke="none" font-family="Arial" font-size="13px" font-style="normal" font-weight="normal" text-decoration="none" x="141" y="437.5"></text></g></g><g transform="translate(-126,-342) scale(1,1)"><rect fill="#ffffff" stroke="none" x="432" y="352" width="202.8623046875" height="75"/></g><g transform="translate(-126,-342) scale(1,1)"><path fill="none" stroke="#000000" d="M 432 352 L 634.8623046875 352 L 634.8623046875 427 L 432 427 L 432 352 Z Z" stroke-miterlimit="10"/></g><g transform="translate(-126,-342) scale(1,1)"><path fill="none" stroke="#000000" d="M 432 375 L 634.8623046875 375" stroke-miterlimit="10"/></g><g transform="translate(-126,-342) scale(1,1)"><path fill="none" stroke="#000000" d="M 460.05908203125 375 L 460.05908203125 427" stroke-miterlimit="10"/></g><g transform="translate(-126,-342) scale(1,1)"><path fill="none" stroke="#000000" d="M 531.47900390625 375 L 531.47900390625 427" stroke-miterlimit="10"/></g><g transform="translate(-126,-342) scale(1,1)"><g><path fill="none" stroke="none"/><text fill="#000000" stroke="none" font-family="Arial" font-size="13px" font-style="normal" font-weight="bold" text-decoration="none" x="511.39208984375" y="369.5">session</text></g></g><g transform="translate(-126,-342) scale(1,1)"><g><path fill="none" stroke="none"/><text fill="#000000" stroke="none" font-family="Arial" font-size="13px" font-style="normal" font-weight="normal" text-decoration="none" x="437" y="393">PK</text></g></g><g transform="translate(-126,-342) scale(1,1)"><g><path fill="none" stroke="none"/><text fill="#000000" stroke="none" font-family="Arial" font-size="13px" font-style="normal" font-weight="normal" text-decoration="none" x="465.05908203125" y="393">token</text></g></g><g transform="translate(-126,-342) scale(1,1)"><g><path fill="none" stroke="none"/><text fill="#000000" stroke="none" font-family="Arial" font-size="13px" font-style="normal" font-weight="normal" text-decoration="none" x="536.47900390625" y="393">VARCHAR(255)</text></g></g><g transform="translate(-126,-342) scale(1,1)"><g><path fill="none" stroke="none"/><text fill="#000000" stroke="none" font-family="Arial" font-size="13px" font-style="normal" font-weight="normal" text-decoration="none" x="437" y="392.5"></text></g></g><g transform="translate(-126,-342) scale(1,1)"><g><path fill="none" stroke="none"/><text fill="#000000" stroke="none" font-family="Arial" font-size="13px" font-style="normal" font-weight="normal" text-decoration="none" x="437" y="408"></text></g></g><g transform="translate(-126,-342) scale(1,1)"><g><path fill="none" stroke="none"/><text fill="#000000" stroke="none" font-family="Arial" font-size="13px" font-style="normal" font-weight="normal" text-decoration="none" x="465.05908203125" y="408">expires</text></g></g><g transform="translate(-126,-342) scale(1,1)"><g><path fill="none" stroke="none"/><text fill="#000000" stroke="none" font-family="Arial" font-size="13px" font-style="normal" font-weight="normal" text-decoration="none" x="536.47900390625" y="408">TIMESTAMP</text></g></g><g transform="translate(-126,-342) scale(1,1)"><g><path fill="none" stroke="none"/><text fill="#000000" stroke="none" font-family="Arial" font-size="13px" font-style="normal" font-weight="normal" text-decoration="none" x="437" y="407.5"></text></g></g><g transform="translate(-126,-342) scale(1,1)"><g><path fill="none" stroke="none"/><text fill="#000000" stroke="none" font-family="Arial" font-size="13px" font-style="normal" font-weight="normal" text-decoration="none" x="437" y="423">FK</text></g></g><g transform="translate(-126,-342) scale(1,1)"><g><path fill="none" stroke="none"/><text fill="#000000" stroke="none" font-family="Arial" font-size="13px" font-style="normal" font-weight="normal" text-decoration="none" x="465.05908203125" y="423">username</text></g></g><g transform="translate(-126,-342) scale(1,1)"><g><path fill="none" stroke="none"/><text fill="#000000" stroke="none" font-family="Arial" font-size="13px" font-style="normal" font-weight="normal" text-decoration="none" x="536.47900390625" y="423">VARCHAR(12)</text></g></g><g transform="translate(-126,-342) scale(1,1)"><g><path fill="none" stroke="none"/><text fill="#000000" stroke="none" font-family="Arial" font-size="13px" font-style="normal" font-weight="normal" text-decoration="none" x="437" y="422.5"></text></g></g><g transform="translate(-126,-342) scale(1,1)"><path fill="none" stroke="#000000" d="M 354 392 L 432 392" stroke-miterlimit="10"/></g><g transform="translate(-126,-342) scale(1,1)"><path fill="none" stroke="#000000" d="M 418 392 L 432 399" stroke-miterlimit="10"/></g><g transform="translate(-126,-342) scale(1,1)"><path fill="none" stroke="#000000" d="M 418 392 L 432 385" stroke-miterlimit="10"/></g><g transform="translate(-126,-342) scale(1,1)"><path fill="#FFFFFF" stroke="none" d="M 403 392 C 403 388.1340064 406.1340064 385 410 385 C 413.8659936 385 417 388.1340064 417 392 C 417 395.8659936 413.8659936 399 410 399 C 406.1340064 399 403 395.8659936 403 392 Z"/></g><g transform="translate(-126,-342) scale(1,1)"><path fill="none" stroke="#000000" d="M 403 392 C 403 388.1340064 406.1340064 385 410 385 C 413.8659936 385 417 388.1340064 417 392 C 417 395.8659936 413.8659936 399 410 399 C 406.1340064 399 403 395.8659936 403 392 Z" stroke-miterlimit="10"/></g><g transform="translate(-126,-342) scale(1,1)"><path fill="none" stroke="#000000" d="M 361 385 L 361 399" stroke-miterlimit="10"/></g><g transform="translate(-126,-342) scale(1,1)"><path fill="none" stroke="#000000" d="M 368 385 L 368 399" stroke-miterlimit="10"/></g><g transform="translate(-126,-342) scale(1,1)"><g><path fill="none" stroke="none"/><text fill="#000000" stroke="none" font-family="Arial" font-size="13px" font-style="normal" font-weight="normal" text-decoration="none" x="378.5" y="383.5"></text></g></g><g transform="translate(-126,-342) scale(1,1)"><g><path fill="none" stroke="none"/><text fill="#000000" stroke="none" font-family="Arial" font-size="13px" font-style="normal" font-weight="normal" text-decoration="none" x="405.5" y="383.5"></text></g></g></g></svg>